<?xml version="1.0" encoding="UTF-8"?>
<svg version="1.1" xmlns="http://www.w3.org/2000/svg" width="316" height="359">
<path d="M0 0 C104.28 0 208.56 0 316 0 C316 118.47 316 236.94 316 359 C211.72 359 107.44 359 0 359 C0 240.53 0 122.06 0 0 Z " fill="#0B704E" transform="translate(0,0)"/>
<path d="M0 0 C104.28 0 208.56 0 316 0 C316 118.47 316 236.94 316 359 C211.72 359 107.44 359 0 359 C0 240.53 0 122.06 0 0 Z M106.6796875 26.98828125 C104.52371966 27.80226911 102.36403871 28.5873296 100.1875 29.34375 C80.42688383 36.40111292 62.46731546 48.19711463 46 61 C44.53046875 62.12535156 44.53046875 62.12535156 43.03125 63.2734375 C39.43329885 66.03948018 39.43329885 66.03948018 36 69 C36 69.66 36 70.32 36 71 C35.41573242 71.25523438 34.83146484 71.51046875 34.22949219 71.7734375 C31.77541738 73.12355487 30.24181563 74.58643725 28.328125 76.625 C27.66425781 77.33140625 27.00039063 78.0378125 26.31640625 78.765625 C25.63449219 79.50296875 24.95257812 80.2403125 24.25 81 C23.55261719 81.73734375 22.85523438 82.4746875 22.13671875 83.234375 C18.44253712 86.60885375 18.44253712 86.60885375 17 91 C16.34 91 15.68 91 15 91 C9.8902211 95.28893088 6.9528205 100.1194457 6.3359375 106.71484375 C5.76106824 122.08541047 6.99814952 140.74150141 13 155 C14.67102161 160.83186542 15.98552542 166.69764226 16.9375 172.6875 C17.69757364 177.10859499 19.05494892 180.73226491 20.99609375 184.7578125 C22.40004984 187.89349654 23.26957118 191.12654334 24.20703125 194.42578125 C25.53103142 198.72389019 27.26265337 202.85506133 29 207 C29.66 207 30.32 207 31 207 C31.18175781 207.90492188 31.18175781 207.90492188 31.3671875 208.828125 C31.53476562 209.62734375 31.70234375 210.4265625 31.875 211.25 C32.03742187 212.03890625 32.19984375 212.8278125 32.3671875 213.640625 C32.99150075 215.96831144 33.84838542 217.89031952 35 220 C35.66 220 36.32 220 37 220 C37.33 221.98 37.66 223.96 38 226 C38.66 226 39.32 226 40 226 C40.144375 226.78375 40.28875 227.5675 40.4375 228.375 C40.87798925 230.96421018 40.87798925 230.96421018 42 233 C42.66 233 43.32 233 44 233 C44.23203125 233.66386719 44.4640625 234.32773438 44.703125 235.01171875 C46.37123374 238.85540305 48.51164655 242.27810564 50.75 245.8125 C51.42760376 246.88697388 51.42760376 246.88697388 52.11889648 247.9831543 C55.203242 252.8350394 58.37798483 257.53008306 62 262 C62.64066406 262.80050781 63.28132813 263.60101563 63.94140625 264.42578125 C66.27027293 267.30457709 68.62841855 270.15628136 71 273 C71.46744629 273.56058105 71.93489258 274.12116211 72.41650391 274.69873047 C81.24364476 285.24639102 90.47218372 295.11238698 101 304 C101.8353125 304.72445313 102.670625 305.44890625 103.53125 306.1953125 C116.76364549 317.50101304 130.91756983 327.33791466 146 336 C147.36318359 336.85658203 147.36318359 336.85658203 148.75390625 337.73046875 C149.92759766 338.45169922 149.92759766 338.45169922 151.125 339.1875 C152.08792969 339.79658203 152.08792969 339.79658203 153.0703125 340.41796875 C156.79339373 341.5409224 159.76931886 339.12159936 163.0234375 337.40625 C182.6441131 326.2467049 200.85973587 313.19185775 217.234375 297.61328125 C219.56217601 295.41370657 221.93040947 293.31670536 224.375 291.25 C227.60875404 288.44831331 230.39456774 285.42005631 233.15625 282.15625 C235.19160424 279.77592046 237.31207012 277.48762275 239.4375 275.1875 C243.31426386 270.89607379 246.73250766 266.40600323 250.0703125 261.6875 C252.51221041 258.28663813 255.11506075 255.02984688 257.75 251.77734375 C259.19175691 250.08949397 259.19175691 250.08949397 259 248 C259.66 248 260.32 248 261 248 C261.25394531 247.46890625 261.50789062 246.9378125 261.76953125 246.390625 C264.68736916 240.40195394 264.68736916 240.40195394 266.75 237.75 C268.38749213 235.81594124 268.38749213 235.81594124 268 232 C268.66 232 269.32 232 270 232 C270.43699219 231.09121094 270.43699219 231.09121094 270.8828125 230.1640625 C273.15218235 225.52541343 275.52807827 221.10189905 278.3125 216.75 C280.61497476 213.01657546 281.70917602 210.49144814 281 206 C281.66 206 282.32 206 283 206 C283.50833591 204.75336669 284.00631145 203.50250613 284.5 202.25 C284.91765625 201.20585937 284.91765625 201.20585937 285.34375 200.140625 C286.19540327 197.73577305 286.19540327 197.73577305 286 194 C286.66 194 287.32 194 288 194 C295.15294975 171.68113088 301.84322077 149.45893429 304 126 C304.14078979 124.62207275 304.14078979 124.62207275 304.28442383 123.21630859 C305.78785019 107.68991435 305.78785019 107.68991435 299.68994141 93.88110352 C296.9447753 90.73858054 294.05093341 87.84331318 291 85 C289.73621039 83.74688483 288.47701836 82.48911449 287.22265625 81.2265625 C286.66457275 80.66791504 286.10648926 80.10926758 285.53149414 79.53369141 C285.02610107 79.02757324 284.52070801 78.52145508 284 78 C283.175 77.175 282.35 76.35 281.5 75.5 C280.15723604 74.15723604 278.81768555 72.81101225 277.49926758 71.44433594 C273.32260768 67.16064492 268.94922731 63.36738396 264.1875 59.75 C263.45466797 59.19280273 262.72183594 58.63560547 261.96679688 58.06152344 C251.29673521 50.08843998 239.84833417 43.41751557 228.125 37.125 C227.48433594 36.77985352 226.84367188 36.43470703 226.18359375 36.07910156 C185.01682319 14.514561 149.65769304 10.63431291 106.6796875 26.98828125 Z " fill="#FDFDFD" transform="translate(0,0)"/>
<path d="M0 0 C8.36672071 4.21493505 15.70380384 9.98945089 19.54077148 18.72827148 C22.39370817 27.88075624 21.32379295 38.39952299 21.21655273 47.89624023 C21.83062988 47.87529297 22.44470703 47.8543457 23.07739258 47.83276367 C25.91527291 47.7485599 28.75288926 47.69725601 31.59155273 47.64624023 C32.55706055 47.61272461 33.52256836 47.57920898 34.51733398 47.54467773 C46.25551488 47.38711826 55.60361367 51.99991933 64.21655273 59.89624023 C66.66129207 63.0582983 68.51585901 66.28610337 70.21655273 69.89624023 C70.67030273 70.84499023 71.12405273 71.79374023 71.59155273 72.77124023 C73.70952948 83.36112397 72.05708721 93.76381907 66.93139648 103.28295898 C61.72260471 110.90027287 52.27495698 117.08271408 43.21655273 118.89624023 C41.48369626 118.97576829 39.74807887 119.00398167 38.01342773 118.99389648 C37.03374023 118.99067383 36.05405273 118.98745117 35.04467773 118.98413086 C34.02889648 118.97575195 33.01311523 118.96737305 31.96655273 118.95874023 C30.41967773 118.95197266 30.41967773 118.95197266 28.84155273 118.94506836 C26.299827 118.93330111 23.75821954 118.91686035 21.21655273 118.89624023 C21.23975586 119.98420898 21.26295898 121.07217773 21.28686523 122.19311523 C21.51270959 136.7351669 21.23486463 148.31913506 11.21655273 159.89624023 C8.24374858 162.37530943 5.21347733 164.89624023 1.21655273 164.89624023 C0.88655273 165.88624023 0.55655273 166.87624023 0.21655273 167.89624023 C-12.12346704 170.83684069 -21.20970357 170.73497905 -32.78344727 164.89624023 C-41.41273216 159.34984831 -47.26121412 149.76160408 -49.78344727 139.89624023 C-50.11771995 136.21717522 -50.07019786 132.5863263 -49.97094727 128.89624023 C-49.95064453 127.44797852 -49.95064453 127.44797852 -49.92993164 125.97045898 C-49.89490184 123.61178598 -49.84578811 121.25432252 -49.78344727 118.89624023 C-50.40687012 118.93289795 -51.03029297 118.96955566 -51.67260742 119.00732422 C-66.21124817 119.74805283 -77.29733558 119.8069798 -88.97094727 110.07202148 C-90.86708175 108.12276254 -92.30931739 106.18015879 -93.78344727 103.89624023 C-94.64776367 102.60266602 -94.64776367 102.60266602 -95.52954102 101.28295898 C-100.51811808 92.76896718 -101.58358485 83.5267015 -99.30297852 73.85961914 C-98.83128664 72.19489807 -98.31202483 70.54378242 -97.78344727 68.89624023 C-97.12344727 68.89624023 -96.46344727 68.89624023 -95.78344727 68.89624023 C-95.69450195 68.1653418 -95.60555664 67.43444336 -95.51391602 66.68139648 C-93.95269327 60.72871296 -88.5259368 56.33568811 -83.90844727 52.52124023 C-75.82608035 48.31840944 -68.1624439 47.47432377 -59.15844727 47.70874023 C-58.15426758 47.72227539 -57.15008789 47.73581055 -56.11547852 47.74975586 C-53.67087862 47.78467871 -51.22746993 47.83371276 -48.78344727 47.89624023 C-48.80963135 47.23205078 -48.83581543 46.56786133 -48.86279297 45.88354492 C-49.76514217 19.53951706 -49.76514217 19.53951706 -41.53344727 9.02124023 C-29.18102044 -0.52381686 -15.2864891 -6.74659623 0 0 Z " fill="#0D845C" transform="translate(169.783447265625,94.103759765625)"/>
<path d="M0 0 C8.36672071 4.21493505 15.70380384 9.98945089 19.54077148 18.72827148 C22.39370817 27.88075624 21.32379295 38.39952299 21.21655273 47.89624023 C21.83062988 47.87529297 22.44470703 47.8543457 23.07739258 47.83276367 C25.91527291 47.7485599 28.75288926 47.69725601 31.59155273 47.64624023 C32.55706055 47.61272461 33.52256836 47.57920898 34.51733398 47.54467773 C46.25551488 47.38711826 55.60361367 51.99991933 64.21655273 59.89624023 C66.66129207 63.0582983 68.51585901 66.28610337 70.21655273 69.89624023 C70.67030273 70.84499023 71.12405273 71.79374023 71.59155273 72.77124023 C73.70952948 83.36112397 72.05708721 93.76381907 66.93139648 103.28295898 C61.72260471 110.90027287 52.27495698 117.08271408 43.21655273 118.89624023 C41.48369626 118.97576829 39.74807887 119.00398167 38.01342773 118.99389648 C37.03374023 118.99067383 36.05405273 118.98745117 35.04467773 118.98413086 C34.02889648 118.97575195 33.01311523 118.96737305 31.96655273 118.95874023 C30.41967773 118.95197266 30.41967773 118.95197266 28.84155273 118.94506836 C26.299827 118.93330111 23.75821954 118.91686035 21.21655273 118.89624023 C21.23975586 119.98420898 21.26295898 121.07217773 21.28686523 122.19311523 C21.51270959 136.7351669 21.23486463 148.31913506 11.21655273 159.89624023 C8.24374858 162.37530943 5.21347733 164.89624023 1.21655273 164.89624023 C0.88655273 165.88624023 0.55655273 166.87624023 0.21655273 167.89624023 C-12.12346704 170.83684069 -21.20970357 170.73497905 -32.78344727 164.89624023 C-41.41273216 159.34984831 -47.26121412 149.76160408 -49.78344727 139.89624023 C-50.11771995 136.21717522 -50.07019786 132.5863263 -49.97094727 128.89624023 C-49.95064453 127.44797852 -49.95064453 127.44797852 -49.92993164 125.97045898 C-49.89490184 123.61178598 -49.84578811 121.25432252 -49.78344727 118.89624023 C-50.40687012 118.93289795 -51.03029297 118.96955566 -51.67260742 119.00732422 C-66.21124817 119.74805283 -77.29733558 119.8069798 -88.97094727 110.07202148 C-90.86708175 108.12276254 -92.30931739 106.18015879 -93.78344727 103.89624023 C-94.64776367 102.60266602 -94.64776367 102.60266602 -95.52954102 101.28295898 C-100.51811808 92.76896718 -101.58358485 83.5267015 -99.30297852 73.85961914 C-98.83128664 72.19489807 -98.31202483 70.54378242 -97.78344727 68.89624023 C-97.12344727 68.89624023 -96.46344727 68.89624023 -95.78344727 68.89624023 C-95.69450195 68.1653418 -95.60555664 67.43444336 -95.51391602 66.68139648 C-93.95269327 60.72871296 -88.5259368 56.33568811 -83.90844727 52.52124023 C-75.82608035 48.31840944 -68.1624439 47.47432377 -59.15844727 47.70874023 C-58.15426758 47.72227539 -57.15008789 47.73581055 -56.11547852 47.74975586 C-53.67087862 47.78467871 -51.22746993 47.83371276 -48.78344727 47.89624023 C-48.80963135 47.23205078 -48.83581543 46.56786133 -48.86279297 45.88354492 C-49.76514217 19.53951706 -49.76514217 19.53951706 -41.53344727 9.02124023 C-29.18102044 -0.52381686 -15.2864891 -6.74659623 0 0 Z M-33.78344727 18.89624023 C-37.17116588 25.05276732 -37.14678139 30.40407236 -36.97094727 37.33374023 C-36.95741211 38.35145508 -36.94387695 39.36916992 -36.92993164 40.41772461 C-36.89481336 42.91112237 -36.84563285 45.40339536 -36.78344727 47.89624023 C-35.98124756 47.91605957 -35.17904785 47.93587891 -34.35253906 47.95629883 C-30.7250055 48.05143519 -27.09805682 48.16116104 -23.47094727 48.27124023 C-21.57699219 48.31764648 -21.57699219 48.31764648 -19.64477539 48.36499023 C-18.4362793 48.40366211 -17.2277832 48.44233398 -15.98266602 48.48217773 C-14.30950317 48.52930908 -14.30950317 48.52930908 -12.60253906 48.57739258 C-9.78344727 48.89624023 -9.78344727 48.89624023 -6.78344727 50.89624023 C-6.59594727 54.52124023 -6.59594727 54.52124023 -6.78344727 57.89624023 C-10.1491006 59.9206851 -12.73600582 60.15139266 -16.63427734 60.16748047 C-17.8126265 60.17766708 -18.99097565 60.1878537 -20.20503235 60.198349 C-22.1097657 60.20155907 -22.1097657 60.20155907 -24.05297852 60.20483398 C-26.05394908 60.2235542 -28.05491965 60.24229139 -30.05588055 60.26201725 C-34.9839349 60.30732291 -39.91212558 60.3309534 -44.84033203 60.35253906 C-47.60654436 60.36538273 -50.37250271 60.38611705 -53.13859558 60.41481018 C-55.74064095 60.44099746 -58.34284546 60.45494646 -60.94502258 60.45518494 C-68.38542462 60.53873889 -73.8386492 60.87920023 -79.89282227 65.50952148 C-84.88218348 70.67707417 -87.8792389 74.76684646 -88.28344727 82.14624023 C-88.01906796 90.25387218 -84.77105676 96.37580639 -78.90844727 101.89624023 C-73.60217437 106.5142518 -67.36045615 107.15012014 -60.53735352 107.09155273 C-59.55338844 107.08730789 -59.55338844 107.08730789 -58.54954529 107.08297729 C-56.48148317 107.07190007 -54.41387553 107.04682086 -52.34594727 107.02124023 C-50.93254212 107.01119425 -49.5191301 107.00207125 -48.10571289 106.99389648 C-44.66481332 106.97200208 -41.22417475 106.93756075 -37.78344727 106.89624023 C-37.80963135 107.75266113 -37.83581543 108.60908203 -37.86279297 109.49145508 C-37.94878665 112.71567388 -38.01106631 115.93930204 -38.05810547 119.16430664 C-38.08301532 120.55122288 -38.11695729 121.9380111 -38.16064453 123.32446289 C-38.49082713 134.08453105 -36.87483584 141.65612013 -30.34594727 150.33374023 C-25.20965608 155.47003142 -19.97397642 156.63472145 -12.97094727 157.20874023 C-7.74939577 157.14940442 -2.90655623 155.06234888 0.75952148 151.32202148 C2.21655273 149.89624023 2.21655273 149.89624023 5.21655273 148.89624023 C9.51491365 142.67592898 9.73082678 136.13685185 9.46655273 128.83374023 C9.44850586 127.87274414 9.43045898 126.91174805 9.41186523 125.92163086 C9.3652407 123.57874796 9.29983443 121.23805733 9.21655273 118.89624023 C7.91451904 118.86651123 7.91451904 118.86651123 6.58618164 118.83618164 C3.36929006 118.75814152 0.15278229 118.67145142 -3.0637207 118.57885742 C-4.45653299 118.54054697 -5.84944491 118.50569764 -7.24243164 118.47436523 C-9.24331034 118.42876116 -11.24386873 118.369724 -13.24438477 118.31030273 C-15.05108643 118.26317139 -15.05108643 118.26317139 -16.89428711 118.21508789 C-19.78344727 117.89624023 -19.78344727 117.89624023 -21.78344727 115.89624023 C-22.03344727 112.89624023 -22.03344727 112.89624023 -21.78344727 109.89624023 C-19.78344727 107.89624023 -19.78344727 107.89624023 -17.25646973 107.65814209 C-16.18964966 107.66291565 -15.12282959 107.66768921 -14.02368164 107.67260742 C-12.814823 107.67210388 -11.60596436 107.67160034 -10.36047363 107.67108154 C-8.38875183 107.68198822 -8.38875183 107.68198822 -6.37719727 107.69311523 C-5.01395128 107.68963534 -3.6507087 107.6844217 -2.28747559 107.67755127 C3.50271068 107.64960117 9.29256204 107.63687859 15.08276367 107.66625977 C18.62569767 107.68311078 22.16754598 107.67047848 25.71037292 107.63980865 C27.70093629 107.63082671 29.69156265 107.65362384 31.68200684 107.67718506 C41.22768621 107.57576124 47.42385137 105.39208284 54.40905762 98.83953857 C58.35584514 94.59621555 60.41819502 88.47040732 60.65405273 82.70874023 C59.77948333 75.08749257 56.40101686 69.39216127 50.58447266 64.53271484 C42.92330481 59.43837875 34.45748328 60.34211319 25.65405273 60.58374023 C24.05708256 60.60886257 22.46007419 60.63166878 20.86303711 60.65209961 C16.97992005 60.70676676 13.0986646 60.79281484 9.21655273 60.89624023 C9.23226318 59.90293701 9.24797363 58.90963379 9.26416016 57.88623047 C9.31875472 54.17570206 9.35300929 50.46520866 9.38134766 46.75439453 C9.39636739 45.15309667 9.41678936 43.55183948 9.44287109 41.95068359 C9.47955711 39.63946452 9.49634708 37.32879268 9.50952148 35.01733398 C9.52500534 34.30975449 9.5404892 33.60217499 9.55644226 32.87315369 C9.55847453 26.77278295 8.20248364 22.18478918 4.16577148 17.53295898 C-3.09386353 11.27638235 -8.18406847 9.40089862 -17.81079102 9.57983398 C-24.56126581 10.29834707 -29.52869407 13.66897203 -33.78344727 18.89624023 Z " fill="#F2F7F6" transform="translate(169.783447265625,94.103759765625)"/>
<path d="M0 0 C10.30192625 6.14153296 10.30192625 6.14153296 11.91674805 10.90380859 C13.64772277 18.34677023 13.51240601 25.83651114 13.4375 33.4375 C13.4365332 35.34789062 13.4365332 35.34789062 13.43554688 37.296875 C13.39074248 46.65601504 13.39074248 46.65601504 12.25 48.9375 C10.27 48.4425 10.27 48.4425 8.25 47.9375 C8.25 49.5875 8.25 51.2375 8.25 52.9375 C1.70423515 56.52180251 -4.37740507 56.378194 -11.7265625 56.37890625 C-12.96997406 56.39211411 -14.21338562 56.40532196 -15.49447632 56.41893005 C-18.78376129 56.45281346 -22.0728271 56.4752641 -25.36224365 56.49047852 C-30.00059306 56.51242055 -34.63877238 56.54518025 -39.27694702 56.59178162 C-41.74205948 56.6161074 -44.20728732 56.6309913 -46.67251587 56.63539124 C-48.34983292 56.65067116 -48.34983292 56.65067116 -50.06103516 56.66625977 C-51.04141754 56.67053482 -52.02179993 56.67480988 -53.03189087 56.67921448 C-55.94571603 56.95609771 -58.08903538 57.75130542 -60.75 58.9375 C-61.53375 59.14375 -62.3175 59.35 -63.125 59.5625 C-67.99001937 62.11084348 -72.01515763 66.7329729 -73.75 71.9375 C-73.82973476 73.27275717 -73.85771338 74.61162083 -73.84765625 75.94921875 C-73.84443359 76.70654297 -73.84121094 77.46386719 -73.83789062 78.24414062 C-73.82951172 79.02982422 -73.82113281 79.81550781 -73.8125 80.625 C-73.80798828 81.42228516 -73.80347656 82.21957031 -73.79882812 83.04101562 C-73.7870585 85.00654257 -73.76912348 86.97203085 -73.75 88.9375 C-78.42004517 87.09143514 -79.7077813 84.19726111 -81.76171875 79.796875 C-83.58127362 74.53239212 -83.85132551 69.26091169 -82.0859375 63.93359375 C-79.31024414 58.53909404 -74.69446545 53.09198147 -69.00930786 50.86291504 C-65.71628528 49.92792738 -63.03765803 49.67430799 -59.62451172 49.65039062 C-58.43663055 49.63697632 -57.24874939 49.62356201 -56.02487183 49.60974121 C-54.755961 49.60446411 -53.48705017 49.59918701 -52.1796875 49.59375 C-50.1725649 49.57141017 -48.16544236 49.54905963 -46.1583271 49.52606964 C-41.93519142 49.48081958 -37.71190698 49.45282298 -33.48864746 49.42181396 C-30.00236478 49.39556154 -26.5162144 49.36553517 -23.03005981 49.32556152 C-20.41920306 49.29645959 -17.80823162 49.27608277 -15.19723511 49.26525879 C-14.01565826 49.25184448 -12.83408142 49.23843018 -11.61669922 49.22460938 C-10.0583284 49.21367249 -10.0583284 49.21367249 -8.46847534 49.20251465 C-5.73887155 48.93641513 -4.08092427 48.33898994 -1.75 46.9375 C-1.49984127 43.52107241 -1.49984127 43.52107241 -1.75 39.9375 C-5.23678936 37.61297376 -6.81967571 37.63976266 -10.94921875 37.5234375 C-12.15771484 37.48476562 -13.36621094 37.44609375 -14.61132812 37.40625 C-15.87396484 37.3753125 -17.13660156 37.344375 -18.4375 37.3125 C-19.71173828 37.27382812 -20.98597656 37.23515625 -22.29882812 37.1953125 C-25.44907292 37.10092314 -28.59930991 37.0153417 -31.75 36.9375 C-31.8673794 33.43778801 -31.93763961 29.93859045 -32 26.4375 C-32.05027344 24.96410156 -32.05027344 24.96410156 -32.1015625 23.4609375 C-32.20165141 15.95426922 -30.95989179 10.65724037 -26.00390625 4.9140625 C-25.44574219 4.46804687 -24.88757813 4.02203125 -24.3125 3.5625 C-23.75691406 3.10101563 -23.20132813 2.63953125 -22.62890625 2.1640625 C-15.76626747 -2.31591375 -7.69900137 -2.18138372 0 0 Z " fill="#0F7855" transform="translate(164.75,105.0625)"/>
<path d="M0 0 C5.84389169 3.98447161 8.50429447 8.05327877 10 15 C11.37315231 26.22268094 11.06092054 36.66743085 4 46 C-3.23527951 53.9299712 -12.05080912 59.73684684 -22.9609375 60.4140625 C-24.76526463 60.49308413 -26.57000086 60.5632026 -28.375 60.625 C-29.76525391 60.68300781 -29.76525391 60.68300781 -31.18359375 60.7421875 C-33.4555377 60.83587591 -35.72748596 60.92159348 -38 61 C-38.01458252 61.62455078 -38.02916504 62.24910156 -38.04418945 62.89257812 C-38.11933102 65.76229552 -38.21576935 68.63093237 -38.3125 71.5 C-38.33505859 72.48226562 -38.35761719 73.46453125 -38.38085938 74.4765625 C-38.76608343 84.98267319 -41.78900911 92.26432881 -49 100 C-58.3129806 108.59092989 -66.32716205 111.10739693 -79 111 C-85.60605636 110.09917413 -90.48660985 109.11729446 -95 104 C-91.73704195 102.91234732 -91.14154647 103.14162206 -88 104 C-81.34205532 104.502266 -74.35375385 104.18009536 -68 102 C-66.96673778 101.03440734 -65.96559266 100.03326222 -65 99 C-63.76211861 98.31109209 -62.51099459 97.64562923 -61.25 97 C-55.04729399 93.16622415 -51.25228735 87.1337078 -49.15625 80.21484375 C-47.54970661 71.62692428 -47.39243868 62.7162696 -47 54 C-46.37544922 53.98541748 -45.75089844 53.97083496 -45.10742188 53.95581055 C-42.23770448 53.88066898 -39.36906763 53.78423065 -36.5 53.6875 C-35.02660156 53.65366211 -35.02660156 53.65366211 -33.5234375 53.61914062 C-22.84909548 53.22774808 -13.10229254 49.71111994 -5.171875 42.2890625 C1.44482144 34.36907737 3.67432989 23.84923581 3.33984375 13.734375 C2.84940272 9.78829773 1.58710917 6.63712518 0 3 C0 2.01 0 1.02 0 0 Z " fill="#0C3F2E" transform="translate(238,159)"/>
<path d="M0 0 C3.10208984 0.3696435 3.10208984 0.3696435 6.63671875 0.4140625 C7.93544922 0.45273438 9.23417969 0.49140625 10.57226562 0.53125 C11.94400573 0.56270517 13.31575061 0.59395251 14.6875 0.625 C16.07098785 0.66319197 17.45445223 0.70224442 18.83789062 0.7421875 C22.2251245 0.83660517 25.61235069 0.92218118 29 1 C29.117791 4.31219232 29.18777155 7.62383492 29.25 10.9375 C29.30027344 12.32678711 29.30027344 12.32678711 29.3515625 13.74414062 C29.44267796 20.23611681 28.48210277 25.42925488 25 31 C22.625 32.8125 22.625 32.8125 20 34 C18.96875 34.70125 17.9375 35.4025 16.875 36.125 C12.33005814 39.08909252 8.31246398 39.5312464 3 39 C-4.94936709 37.05063291 -4.94936709 37.05063291 -8 34 C-9.40868419 27.79020442 -9.15376387 21.14534447 -9.125 14.8125 C-9.12886719 13.94947266 -9.13273438 13.08644531 -9.13671875 12.19726562 C-9.12981263 7.68411439 -8.9158496 3.44114371 -8 -1 C-3.375 -2.25 -3.375 -2.25 0 0 Z " fill="#13A876" transform="translate(150,212)"/>
<path d="M0 0 C2.4375 0.375 2.4375 0.375 5 1 C6.35439668 3.70879335 6.06501451 6.00933268 6 9 C5.34 9 4.68 9 4 9 C4 9.66 4 10.32 4 11 C0.91358032 12.02880656 -1.25763746 12.14251937 -4.49365234 12.17358398 C-5.61847015 12.18707382 -6.74328796 12.20056366 -7.90219116 12.21446228 C-9.11782745 12.22490067 -10.33346375 12.23533905 -11.5859375 12.24609375 C-14.15104512 12.27902906 -16.7161492 12.31224076 -19.28125 12.34570312 C-23.33231336 12.39418387 -27.38340304 12.43799745 -31.43457031 12.47680664 C-35.33933977 12.51477967 -39.24384332 12.56805031 -43.1484375 12.62109375 C-44.96581924 12.63371498 -44.96581924 12.63371498 -46.81991577 12.64659119 C-47.9510379 12.66323318 -49.08216003 12.67987518 -50.24755859 12.69702148 C-51.2400058 12.70732895 -52.232453 12.71763641 -53.25497437 12.72825623 C-56.17556202 13.01737976 -58.33172481 13.81079731 -61 15 C-61.78375 15.20625 -62.5675 15.4125 -63.375 15.625 C-68.24001937 18.17334348 -72.26515763 22.7954729 -74 28 C-74.07973476 29.33525717 -74.10771338 30.67412083 -74.09765625 32.01171875 C-74.09443359 32.76904297 -74.09121094 33.52636719 -74.08789062 34.30664062 C-74.07951172 35.09232422 -74.07113281 35.87800781 -74.0625 36.6875 C-74.05798828 37.48478516 -74.05347656 38.28207031 -74.04882812 39.10351562 C-74.0370585 41.06904257 -74.01912348 43.03453085 -74 45 C-78.67004517 43.15393514 -79.9577813 40.25976111 -82.01171875 35.859375 C-83.83127362 30.59489212 -84.10132551 25.32341169 -82.3359375 19.99609375 C-79.55978793 14.6007074 -74.94381098 9.15487226 -69.25831604 6.92442322 C-65.9665298 5.9905041 -63.30175808 5.74281662 -59.89038086 5.72875977 C-58.70572739 5.71857315 -57.52107391 5.70838654 -56.30052185 5.69789124 C-55.03474808 5.69575119 -53.7689743 5.69361115 -52.46484375 5.69140625 C-50.46121941 5.67268855 -48.45759506 5.65395403 -46.45398045 5.63422298 C-41.5302065 5.58895342 -36.60629934 5.56519871 -31.68237305 5.54370117 C-28.91259948 5.53088445 -26.14308177 5.51019064 -23.37342834 5.48143005 C-20.76922693 5.4551828 -18.16486529 5.44129321 -15.56053162 5.4410553 C-14.3790303 5.42771652 -13.19752899 5.41437775 -11.98022461 5.40063477 C-10.94353134 5.39556412 -9.90683807 5.39049347 -8.83872986 5.38526917 C-5.55570528 4.93970083 -3.66040415 3.94474855 -1 2 C-0.67 1.34 -0.34 0.68 0 0 Z " fill="#0A412F" transform="translate(165,149)"/>
<path d="M0 0 C5.84389169 3.98447161 8.50429447 8.05327877 10 15 C11.37315231 26.22268094 11.06092054 36.66743085 4 46 C-3.23527951 53.9299712 -12.05080912 59.73684684 -22.9609375 60.4140625 C-24.76526463 60.49308413 -26.57000086 60.5632026 -28.375 60.625 C-29.30183594 60.66367188 -30.22867188 60.70234375 -31.18359375 60.7421875 C-33.4555377 60.83587591 -35.72748596 60.92159348 -38 61 C-38.01458252 61.62455078 -38.02916504 62.24910156 -38.04418945 62.89257812 C-38.11933102 65.76229552 -38.21576935 68.63093237 -38.3125 71.5 C-38.34633789 72.97339844 -38.34633789 72.97339844 -38.38085938 74.4765625 C-38.64323788 81.63233985 -39.29437634 87.90785867 -44.1875 93.5 C-44.785625 93.995 -45.38375 94.49 -46 95 C-45.38722388 92.03824877 -44.74627478 90.61941217 -43 88 C-40.94255292 81.63276869 -40.60879284 75.07624243 -40.375 68.4375 C-40.33632812 67.52419922 -40.29765625 66.61089844 -40.2578125 65.66992188 C-40.16470178 63.44690344 -40.08132077 61.22348094 -40 59 C-35.05 58.505 -35.05 58.505 -30 58 C-30 57.34 -30 56.68 -30 56 C-35.28 55.67 -40.56 55.34 -46 55 C-45.97679687 56.49273437 -45.95359375 57.98546875 -45.9296875 59.5234375 C-45.91093254 61.47395335 -45.89273205 63.42447458 -45.875 65.375 C-45.85824219 66.35984375 -45.84148437 67.3446875 -45.82421875 68.359375 C-45.81777344 69.30039063 -45.81132812 70.24140625 -45.8046875 71.2109375 C-45.79421387 72.08024902 -45.78374023 72.94956055 -45.77294922 73.84521484 C-46 76 -46 76 -48 78 C-47.67 70.08 -47.34 62.16 -47 54 C-36.5 53.6875 -36.5 53.6875 -33.24023438 53.61206055 C-22.68742642 53.21194947 -12.99963077 49.61503906 -5.171875 42.2890625 C1.44482144 34.36907737 3.67432989 23.84923581 3.33984375 13.734375 C2.84940272 9.78829773 1.58710917 6.63712518 0 3 C0 2.01 0 1.02 0 0 Z " fill="#144635" transform="translate(238,159)"/>
<path d="M0 0 C-0.33 0.99 -0.66 1.98 -1 3 C-0.07662842 2.97905273 0.84674316 2.95810547 1.7980957 2.93652344 C5.22544323 2.86833469 8.6520698 2.81819538 12.07983398 2.78027344 C13.56302261 2.76016241 15.04613199 2.73286926 16.52905273 2.69824219 C18.66149435 2.64969648 20.79288777 2.62702805 22.92578125 2.609375 C24.20880127 2.58842773 25.49182129 2.56748047 26.8137207 2.54589844 C30 3 30 3 31.94213867 5.02441406 C32.29123291 5.67635742 32.64032715 6.32830078 33 7 C35.0162233 6.28436734 35.0162233 6.28436734 37 5 C37.80528889 2.94999129 37.80528889 2.94999129 38 1 C40.88437779 2.29299694 42.87219421 3.65941363 45 6 C44.67 6.33 44.34 6.66 44 7 C43.63239269 9.32817964 43.29758419 11.6618385 43 14 C41.35 14 39.7 14 38 14 C37.97068021 18.14581819 37.95309443 22.29160925 37.9375 26.4375 C37.92493164 28.18450195 37.92493164 28.18450195 37.91210938 29.96679688 C37.89397849 36.40326202 38.13350124 42.62065875 39 49 C35.71675734 47.47243256 34.23661121 46.32821826 32.375 43.1875 C31.97023437 42.52105469 31.56546875 41.85460937 31.1484375 41.16796875 C28.54400838 36.25144438 27.75696575 32.55652483 27.8046875 26.94921875 C27.8075174 26.29041214 27.81034729 25.63160553 27.81326294 24.95283508 C27.82439076 22.86419938 27.84948052 20.77600444 27.875 18.6875 C27.88503941 17.26498018 27.89416358 15.8424536 27.90234375 14.41992188 C27.92430553 10.94647319 27.95878354 7.47327967 28 4 C27.13834229 4.01571045 26.27668457 4.0314209 25.38891602 4.04760742 C22.15163448 4.09913779 18.91456399 4.13654394 15.67700195 4.16479492 C14.28337672 4.17975938 12.88979756 4.20013851 11.49633789 4.22631836 C3.45218111 4.37352037 -3.48981629 4.16874861 -11 1 C-2.34560907 -1.17280453 -2.34560907 -1.17280453 0 0 Z " fill="#11855E" transform="translate(104,197)"/>
<path d="M0 0 C2.96006558 1.69146605 5.50375681 3.5014075 8.0625 5.75 C7.7325 6.41 7.4025 7.07 7.0625 7.75 C6.49176758 7.58701416 5.92103516 7.42402832 5.33300781 7.25610352 C3.04596733 6.74631481 1.07285544 6.63564032 -1.265625 6.65234375 C-2.46445313 6.65717773 -2.46445313 6.65717773 -3.6875 6.66210938 C-4.5125 6.67048828 -5.3375 6.67886719 -6.1875 6.6875 C-7.02796875 6.69201172 -7.8684375 6.69652344 -8.734375 6.70117188 C-10.80211401 6.71292039 -12.86981624 6.73085478 -14.9375 6.75 C-15.5975 8.07 -16.2575 9.39 -16.9375 10.75 C-17.5975 10.75 -18.2575 10.75 -18.9375 10.75 C-19.370625 11.6471875 -19.370625 11.6471875 -19.8125 12.5625 C-20.9375 14.75 -20.9375 14.75 -22.9375 17.75 C-23.39026748 19.77249579 -23.39026748 19.77249579 -23.5703125 21.98046875 C-23.65410156 22.78291016 -23.73789063 23.58535156 -23.82421875 24.41210938 C-23.94216797 25.66217773 -23.94216797 25.66217773 -24.0625 26.9375 C-24.14886719 27.78248047 -24.23523438 28.62746094 -24.32421875 29.49804688 C-24.5360739 31.58128923 -24.73776777 33.66556042 -24.9375 35.75 C-26.9175 35.75 -28.8975 35.75 -30.9375 35.75 C-31.02506305 32.04181703 -31.07808015 28.33390237 -31.125 24.625 C-31.15013672 23.57828125 -31.17527344 22.5315625 -31.20117188 21.453125 C-31.26445864 14.78691912 -30.93601522 10.07536759 -26.2890625 4.921875 C-25.71929687 4.45265625 -25.14953125 3.9834375 -24.5625 3.5 C-23.71558594 2.78070313 -23.71558594 2.78070313 -22.8515625 2.046875 C-16.35018808 -2.35813788 -7.28667448 -2.93068446 0 0 Z " fill="#083C2B" transform="translate(164.9375,105.25)"/>
<path d="M0 0 C3 1 3 1 5 4 C7.05270463 2.15811388 7.05270463 2.15811388 8 0 C8.71285156 1.05058594 9.42570312 2.10117188 10.16015625 3.18359375 C17.20039625 13.51636768 17.20039625 13.51636768 24.85546875 23.3984375 C26 25 26 25 26 27 C26.99 27.33 27.98 27.66 29 28 C30.52011626 29.69660916 31.97015146 31.45678036 33.375 33.25 C35.74169478 36.25919955 38.05270716 39.05167369 40.7890625 41.734375 C43 44 43 44 43 46 C45.37978795 47.49838501 46.65911099 48.02556668 49.5 47.8125 C52.16985322 46.9447977 53.87442181 45.81067772 56 44 C56.99 44.495 56.99 44.495 58 45 C57.05125 45.721875 56.1025 46.44375 55.125 47.1875 C52.32587438 49.49809898 51.01482442 51.44811452 50 55 C45.71144165 54.5200899 43.22979667 51.78630101 40.25 48.9375 C39.71850342 48.43798828 39.18700684 47.93847656 38.6394043 47.42382812 C37.08528162 45.95702629 35.54186163 44.47966889 34 43 C33.25878906 42.30003906 32.51757812 41.60007812 31.75390625 40.87890625 C27.29231261 36.5609454 23.37969825 31.90929348 19.5 27.06640625 C17.16755804 24.2055204 14.77140648 21.41959514 12.34375 18.64013672 C0 4.48491115 0 4.48491115 0 0 Z " fill="#114936" transform="translate(54,249)"/>
<path d="M0 0 C0.33 0 0.66 0 1 0 C1.00386719 1.38058594 1.00386719 1.38058594 1.0078125 2.7890625 C1.38596978 15.16741083 4.29958346 26.23441385 13.203125 35.453125 C15.96551777 37.83118486 18.72342983 39.39262596 22 41 C23.2065625 41.61875 23.2065625 41.61875 24.4375 42.25 C24.953125 42.4975 25.46875 42.745 26 43 C24.82983854 47.82691601 21.97815602 50.02305118 18.31640625 53.0625 C15.94206582 55.04845759 13.69840052 57.13630336 11.4375 59.25 C5.03608371 65.03608635 -1.94527025 70.04727147 -9 75 C-9.56581787 75.39936768 -10.13163574 75.79873535 -10.71459961 76.21020508 C-14.74866705 78.99238385 -14.74866705 78.99238385 -17.0625 79.0625 C-19.91104217 77.50039623 -21.78674027 75.37134971 -24 73 C-25.10291234 71.93619802 -26.20708361 70.87369974 -27.3125 69.8125 C-30 67 -30 67 -30 65 C-29.34 65 -28.68 65 -28 65 C-28 65.66 -28 66.32 -28 67 C-27.01 67.33 -26.02 67.66 -25 68 C-23.3125 69.4375 -23.3125 69.4375 -22 71 C-22 71.66 -22 72.32 -22 73 C-20.02 73.33 -18.04 73.66 -16 74 C-16 74.66 -16 75.32 -16 76 C-15.649375 75.566875 -15.29875 75.13375 -14.9375 74.6875 C-12.26525427 72.36006017 -9.25290241 71.36964312 -6 70 C-4.65368175 69.01755155 -3.31558703 68.02323436 -2 67 C-1.34 67 -0.68 67 0 67 C0 66.34 0 65.68 0 65 C1.65 64.34 3.3 63.68 5 63 C5 62.34 5 61.68 5 61 C5.66 61 6.32 61 7 61 C7 60.34 7 59.68 7 59 C7.66 59 8.32 59 9 59 C9 58.34 9 57.68 9 57 C9.99 57 10.98 57 12 57 C12 56.34 12 55.68 12 55 C12.99 54.278125 13.98 53.55625 15 52.8125 C17.76612847 50.59171277 17.96559573 50.17827665 18.6875 46.4375 C17.8163204 42.081602 16.4369006 41.66555075 13 39 C11.39121937 37.18584312 9.82878921 35.32964358 8.3125 33.4375 C7.54550781 32.48746094 6.77851562 31.53742188 5.98828125 30.55859375 C2.48010345 26.04414098 1.27973353 22.35384282 0.3125 16.8125 C0.17005859 16.08224609 0.02761719 15.35199219 -0.11914062 14.59960938 C-1.03656893 9.44649216 -0.87103794 5.16192284 0 0 Z " fill="#17AA79" transform="translate(119,219)"/>
<path d="M0 0 C3.75218955 2.10390628 6.82991477 4.47239071 10 7.375 C10.825 8.12523438 11.65 8.87546875 12.5 9.6484375 C15.05298884 12.04984263 17.52760387 14.51592325 20 17 C20.76699219 17.7321875 21.53398437 18.464375 22.32421875 19.21875 C24.94885386 21.75228208 27.4683785 24.37367035 30 27 C30.94746094 27.87785156 31.89492188 28.75570312 32.87109375 29.66015625 C38.75186155 35.58602668 40.55152094 40.64608315 40.78393555 49.02197266 C40.72880422 54.36772859 40.42890431 59.67227425 40 65 C39.92096436 66.15967285 39.92096436 66.15967285 39.84033203 67.34277344 C38.79845349 81.72411336 35.08764138 96.20421035 31 110 C29.42185894 107.5558754 28.92518148 106.43586938 29.42578125 103.51953125 C29.71839844 102.62621094 30.01101563 101.73289062 30.3125 100.8125 C31.62304071 96.49576284 32.36416127 92.50709477 32.7578125 88.02734375 C33 86 33 86 33.9375 82.8125 C35.56611531 76.96864506 36.20810252 71.00580655 37 65 C37.11472656 64.27683594 37.22945313 63.55367187 37.34765625 62.80859375 C38.35343186 56.24980351 38.08364566 49.61730098 38 43 C36.68 43 35.36 43 34 43 C34.2475 42.2575 34.495 41.515 34.75 40.75 C34.8325 39.8425 34.915 38.935 35 38 C33.29289472 35.95809523 33.29289472 35.95809523 31 34 C30.360625 33.030625 29.72125 32.06125 29.0625 31.0625 C26.96541277 27.9486432 24.68107174 25.61567974 22 23 C21.21625 22.030625 20.4325 21.06125 19.625 20.0625 C17.25467751 17.15550072 14.57696817 14.83031127 11.6953125 12.44140625 C9.32873251 10.42926796 7.19563443 8.19563443 5 6 C3.6078125 4.9171875 3.6078125 4.9171875 2.1875 3.8125 C1.465625 3.214375 0.74375 2.61625 0 2 C0 1.34 0 0.68 0 0 Z " fill="#39B089" transform="translate(264,61)"/>
<path d="M0 0 C12.84434971 1.46670512 24.86313934 4.75008511 37 9.125 C37.97404785 9.47377197 38.9480957 9.82254395 39.95166016 10.18188477 C40.8544873 10.51631592 41.75731445 10.85074707 42.6875 11.1953125 C43.49574219 11.49453613 44.30398437 11.79375977 45.13671875 12.10205078 C47 13 47 13 48 15 C41.43694032 13.38673393 34.8972637 11.70906094 28.375 9.9375 C14.70735828 5.51470777 14.70735828 5.51470777 1 7 C0.05125 6.95875 -0.8975 6.9175 -1.875 6.875 C-13.11415218 6.73567167 -25.71409285 11.80557763 -36 16 C-38.92824652 16.97608217 -40.95613276 17.08226668 -44 17 C-41.92843989 14.92843989 -40.92805616 14.48139083 -38.21875 13.59765625 C-37.4644873 13.34862549 -36.71022461 13.09959473 -35.93310547 12.84301758 C-35.13018066 12.58544678 -34.32725586 12.32787598 -33.5 12.0625 C-32.67773926 11.79526123 -31.85547852 11.52802246 -31.00830078 11.25268555 C-29.38574025 10.72728652 -27.76222799 10.20481596 -26.13769531 9.68554688 C-24.47082262 9.15099017 -22.80864277 8.60179293 -21.1484375 8.046875 C-13.60450137 5.61000216 -5.79411278 4.36348623 2 3 C1.34 2.01 0.68 1.02 0 0 Z " fill="#0B4A34" transform="translate(163,16)"/>
<path d="M0 0 C2.62527189 -0.05382106 5.24944713 -0.09358313 7.875 -0.125 C8.62136719 -0.14175781 9.36773437 -0.15851563 10.13671875 -0.17578125 C12.09194461 -0.1933959 14.04742021 -0.10320189 16 0 C16.66 0.66 17.32 1.32 18 2 C17.34 2.66 16.68 3.32 16 4 C12.7 4 9.4 4 6 4 C6 10.6 6 17.2 6 24 C4.68 24.33 3.36 24.66 2 25 C0.26973898 26.47890069 0.26973898 26.47890069 -1 28 C-1 25.07140313 -0.90007588 22.16436844 -0.78125 19.23828125 C-0.73613281 18.12001953 -0.69101563 17.00175781 -0.64453125 15.84960938 C-0.59683594 14.68236328 -0.54914063 13.51511719 -0.5 12.3125 C-0.45230469 11.13365234 -0.40460938 9.95480469 -0.35546875 8.74023438 C-0.23751597 5.82680071 -0.11900434 2.91339087 0 0 Z " fill="#063828" transform="translate(192,214)"/>
<path d="M0 0 C1.98 0 3.96 0 6 0 C6.02505615 0.94842773 6.0501123 1.89685547 6.07592773 2.87402344 C6.1711884 6.40018032 6.27041441 9.92617959 6.37231445 13.45214844 C6.41556707 14.97684386 6.45724885 16.50158469 6.49731445 18.02636719 C6.55525203 20.22084222 6.61887795 22.41509068 6.68359375 24.609375 C6.70030624 25.2886908 6.71701874 25.96800659 6.73423767 26.66790771 C6.83507472 29.90538552 7.03139176 32.89769604 8 36 C4.14433986 34.35248958 2.55063048 32.41780296 0.76757812 28.55859375 C-0.8034558 23.32181401 -0.40469049 17.91416718 -0.25 12.5 C-0.23195312 11.29601562 -0.21390625 10.09203125 -0.1953125 8.8515625 C-0.14846554 5.90020395 -0.08288005 2.95052964 0 0 Z " fill="#0C3E2D" transform="translate(133,207)"/>
<path d="M0 0 C4.31213657 -0.14648734 8.62362443 -0.23447124 12.9375 -0.3125 C14.14986328 -0.35439453 15.36222656 -0.39628906 16.61132812 -0.43945312 C24.39997501 -0.54499035 29.65785432 0.3423719 36 5 C36 5.99 36 6.98 36 8 C35.49243164 7.67854004 34.98486328 7.35708008 34.46191406 7.02587891 C31.1948553 5.66449643 28.09470568 5.64520269 24.609375 5.5859375 C23.90476135 5.56657135 23.20014771 5.5472052 22.47418213 5.5272522 C20.23290961 5.46767265 17.99158511 5.42115877 15.75 5.375 C14.22654062 5.33680021 12.70310238 5.29774731 11.1796875 5.2578125 C7.45331894 5.16198982 3.72679165 5.07787893 0 5 C0 3.35 0 1.7 0 0 Z " fill="#073A29" transform="translate(186,155)"/>
<path d="M0 0 C2.64752004 2.57784846 4.94432065 4.91648098 7 8 C7 9.32 7 10.64 7 12 C7.66 12 8.32 12 9 12 C10.05619003 16.28297531 10.11702092 20.42985646 10.0625 24.8125 C10.05798828 25.50537109 10.05347656 26.19824219 10.04882812 26.91210938 C10.03713156 28.60811068 10.01919924 30.30406703 10 32 C8.02 32 6.04 32 4 32 C3.96261719 30.74445313 3.92523438 29.48890625 3.88671875 28.1953125 C3.53138352 16.29500761 3.53138352 16.29500761 0.62109375 4.8125 C0 3 0 3 0 0 Z " fill="#063B29" transform="translate(188,109)"/>
<path d="M0 0 C0.66 0 1.32 0 2 0 C2.5834231 10.93378113 2.5834231 10.93378113 -1 16 C-3.4375 17.6875 -3.4375 17.6875 -6 19 C-6.639375 19.556875 -7.27875 20.11375 -7.9375 20.6875 C-10.70114973 22.44618619 -12.79168439 22.21874879 -16 22 C-14.39344468 18.30666901 -12.07760395 15.51305016 -9.5 12.4375 C-7.18760361 9.67088289 -5.00082301 7.00123452 -3 4 C-2.34 4 -1.68 4 -1 4 C-0.67 2.68 -0.34 1.36 0 0 Z " fill="#14684D" transform="translate(176,227)"/>
<path d="M0 0 C7.92 0 15.84 0 24 0 C24 1.65 24 3.3 24 5 C20.75017 5.08728882 17.5006425 5.14048658 14.25 5.1875 C12.86941406 5.22520508 12.86941406 5.22520508 11.4609375 5.26367188 C10.57148438 5.27333984 9.68203125 5.28300781 8.765625 5.29296875 C7.94868164 5.3086792 7.13173828 5.32438965 6.29003906 5.34057617 C3.44968442 4.91815669 2.07230448 3.9560866 0 2 C0 1.34 0 0.68 0 0 Z " fill="#083E2C" transform="translate(155,214)"/>
<path d="M0 0 C0.84820312 0.13277344 1.69640625 0.26554688 2.5703125 0.40234375 C11.05538151 1.67976623 19.43130077 2.50515111 28 3 C28 4.32 28 5.64 28 7 C7.65875785 7.98743894 7.65875785 7.98743894 1 2 C0.67 1.34 0.34 0.68 0 0 Z " fill="#063726" transform="translate(91,211)"/>
<path d="M0 0 C1.32 0.66 2.64 1.32 4 2 C3.01 2.495 3.01 2.495 2 3 C2.04125 3.969375 2.0825 4.93875 2.125 5.9375 C2.13248154 9.66330658 1.38882213 12.97733692 0.5078125 16.58203125 C-0.21893048 20.04244592 -0.48759796 23.50945877 -0.75390625 27.03125 C-1 29 -1 29 -2 30 C-2.4475463 33.60669666 -2.8224506 37.21197382 -3.16210938 40.83007812 C-3.78671875 46.78671875 -3.78671875 46.78671875 -6 49 C-5.81603673 44.51226441 -5.61071466 40.0268191 -5.34765625 35.54296875 C-5.30390869 34.7852417 -5.26016113 34.02751465 -5.21508789 33.24682617 C-4.92597042 30.22668083 -4.31930307 27.33896975 -3.5390625 24.41015625 C-2.60710802 20.24337426 -2.19227208 15.99426128 -1.69750977 11.75732422 C-1.2361429 7.81561487 -0.68693711 3.90885451 0 0 Z " fill="#0E9D6D" transform="translate(238,43)"/>
<path d="M0 0 C0.99 0.33 1.98 0.66 3 1 C2.67 1.33 2.34 1.66 2 2 C1.63239269 4.32817964 1.29758419 6.6618385 1 9 C-0.65 9 -2.3 9 -4 9 C-4.02931979 13.14581819 -4.04690557 17.29160925 -4.0625 21.4375 C-4.07087891 22.60216797 -4.07925781 23.76683594 -4.08789062 24.96679688 C-4.10602151 31.40326202 -3.86649876 37.62065875 -3 44 C-4.32 43.34 -5.64 42.68 -7 42 C-6.01 41.505 -6.01 41.505 -5 41 C-5.33 40.34 -5.66 39.68 -6 39 C-6.08658569 36.44637396 -6.11562516 33.9204558 -6.09765625 31.3671875 C-6.0962413 30.61535187 -6.09482635 29.86351624 -6.09336853 29.08889771 C-6.08776465 26.6842249 -6.07521157 24.27964473 -6.0625 21.875 C-6.0574855 20.24609509 -6.0529225 18.61718873 -6.04882812 16.98828125 C-6.03779397 12.99215173 -6.02052679 8.99609158 -6 5 C-5.01 5 -4.02 5 -3 5 C-2.67 4.34 -2.34 3.68 -2 3 C-1.67 3.33 -1.34 3.66 -1 4 C-0.67 2.68 -0.34 1.36 0 0 Z " fill="#219870" transform="translate(146,202)"/>
<path d="M0 0 C0.33 0 0.66 0 1 0 C2.00938923 15.65674844 -1.61540371 30.06368836 -6 45 C-7.57814106 42.5558754 -8.07481852 41.43586938 -7.57421875 38.51953125 C-7.28160156 37.62621094 -6.98898437 36.73289063 -6.6875 35.8125 C-5.37695929 31.49576284 -4.63583873 27.50709477 -4.2421875 23.02734375 C-4 21 -4 21 -3.0625 17.8125 C-1.43549256 11.97441449 -0.78246691 6.00168772 0 0 Z " fill="#39A883" transform="translate(301,126)"/>
<path d="M0 0 C-0.33 0.99 -0.66 1.98 -1 3 C8.9 3 18.8 3 29 3 C29 13.23 29 23.46 29 34 C28.67 34 28.34 34 28 34 C28 24.1 28 14.2 28 4 C18.53208057 4.11805083 18.53208057 4.11805083 9.06469727 4.27026367 C1.69222132 4.31646273 -4.18428932 3.87573175 -11 1 C-2.34560907 -1.17280453 -2.34560907 -1.17280453 0 0 Z " fill="#7FB2A2" transform="translate(104,197)"/>
<path d="M0 0 C4.95 0 9.9 0 15 0 C14.67 4.29 14.34 8.58 14 13 C13.67 13 13.34 13 13 13 C13 11.35 13 9.7 13 8 C12.28714844 8.02320313 11.57429688 8.04640625 10.83984375 8.0703125 C3.32307024 8.21194753 -3.07223241 8.21643548 -9 3 C-8.36707031 3.15339844 -7.73414062 3.30679688 -7.08203125 3.46484375 C-2.95973151 4.18062964 1.13766507 4.36150163 5.3125 4.5625 C6.14845703 4.60568359 6.98441406 4.64886719 7.84570312 4.69335938 C9.89696935 4.79885307 11.9484648 4.89987315 14 5 C14 3.68 14 2.36 14 1 C9.38 1 4.76 1 0 1 C0 0.67 0 0.34 0 0 Z " fill="#237D5E" transform="translate(105,213)"/>
<path d="M0 0 C1.84288788 3.68577577 2.24701045 4.72122653 2.1953125 8.546875 C2.18886719 9.39121094 2.18242187 10.23554688 2.17578125 11.10546875 C2.15902344 11.97816406 2.14226562 12.85085937 2.125 13.75 C2.11597656 14.63816406 2.10695312 15.52632812 2.09765625 16.44140625 C2.07414577 18.62788058 2.04128499 20.81380094 2 23 C4.31 23 6.62 23 9 23 C9 21.35 9 19.7 9 18 C9.66 19.32 10.32 20.64 11 22 C11.66 21.67 12.32 21.34 13 21 C15.3329866 20.95977609 17.66706666 20.95679753 20 21 C20 21.66 20 22.32 20 23 C20.99 23.33 21.98 23.66 23 24 C15.74 24 8.48 24 1 24 C0.67 16.08 0.34 8.16 0 0 Z " fill="#51927E" transform="translate(190,118)"/>
<path d="M0 0 C0.33 0 0.66 0 1 0 C1.00257812 0.92039063 1.00515625 1.84078125 1.0078125 2.7890625 C1.40983925 15.94873823 5.1482212 26.89264974 14 37 C9.94043474 36.49141912 8.40447046 34.65620113 5.9375 31.5 C-0.58955234 22.18433761 -1.76756898 11.01331441 0 0 Z " fill="#3DAC87" transform="translate(119,219)"/>
<path d="M0 0 C0.66 0.33 1.32 0.66 2 1 C1.06027344 2.03060547 1.06027344 2.03060547 0.1015625 3.08203125 C-0.71570313 3.98308594 -1.53296875 4.88414063 -2.375 5.8125 C-3.18710937 6.70582031 -3.99921875 7.59914063 -4.8359375 8.51953125 C-7.09072907 10.99632674 -7.09072907 10.99632674 -9 14 C-10.175625 14.680625 -10.175625 14.680625 -11.375 15.375 C-14.32672972 17.20226126 -15.86558598 19.29640891 -18 22 C-18.99 22.33 -19.98 22.66 -21 23 C-19.33481689 18.91633665 -16.45307123 15.93962215 -13.5 12.75 C-13.00113281 12.19570312 -12.50226562 11.64140625 -11.98828125 11.0703125 C-10.7031646 9.6714992 -9.35566232 8.33055746 -8 7 C-7.34 7 -6.68 7 -6 7 C-6 6.34 -6 5.68 -6 5 C-4.04072937 3.2856382 -2.04119788 1.61594832 0 0 Z " fill="#2F5247" transform="translate(42,64)"/>
<path d="M0 0 C0.66 0 1.32 0 2 0 C1.38334864 5.39392739 0.12077204 10.28395283 -1.5625 15.4375 C-1.79646484 16.16904297 -2.03042969 16.90058594 -2.27148438 17.65429688 C-2.84267222 19.43780179 -3.42063123 21.21913583 -4 23 C-4.66 23 -5.32 23 -6 23 C-6.33 24.65 -6.66 26.3 -7 28 C-8.55450201 24.06635162 -7.34778674 21.71617382 -5.75 17.9375 C-3.3554262 12.04111216 -1.52186219 6.1740588 0 0 Z " fill="#3D9F80" transform="translate(292,171)"/>
<path d="M0 0 C8.20037516 2.02133496 16.32121297 4.44239683 24 8 C24.33 8.66 24.66 9.32 25 10 C15.96860098 7.7799913 6.9801975 5.41680179 -2 3 C-1.34 2.67 -0.68 2.34 0 2 C0 1.34 0 0.68 0 0 Z " fill="#164F3C" transform="translate(186,21)"/>
<path d="M0 0 C0.33 1.32 0.66 2.64 1 4 C2.10456543 3.94670532 2.10456543 3.94670532 3.23144531 3.89233398 C6.57070847 3.73463778 9.9103145 3.5859712 13.25 3.4375 C14.40886719 3.38142578 15.56773437 3.32535156 16.76171875 3.26757812 C17.87675781 3.21923828 18.99179688 3.17089844 20.140625 3.12109375 C21.68024902 3.05039673 21.68024902 3.05039673 23.25097656 2.97827148 C25.71880683 2.99777743 27.65670465 3.27200971 30 4 C30.33 3.34 30.66 2.68 31 2 C32.98 3.32 34.96 4.64 37 6 C36.67 6.66 36.34 7.32 36 8 C35.49243164 7.67854004 34.98486328 7.35708008 34.46191406 7.02587891 C31.1948553 5.66449643 28.09470568 5.64520269 24.609375 5.5859375 C23.90476135 5.56657135 23.20014771 5.5472052 22.47418213 5.5272522 C20.23290961 5.46767265 17.99158511 5.42115877 15.75 5.375 C14.22654062 5.33680021 12.70310238 5.29774731 11.1796875 5.2578125 C7.45331894 5.16198982 3.72679165 5.07787893 0 5 C0 3.35 0 1.7 0 0 Z " fill="#0A4B35" transform="translate(186,155)"/>
<path d="M0 0 C0.66 0.33 1.32 0.66 2 1 C1.91825827 4.5008943 1.80549732 8.00015493 1.6875 11.5 C1.66494141 12.48226562 1.64238281 13.46453125 1.61914062 14.4765625 C1.35676212 21.63233985 0.70562366 27.90785867 -4.1875 33.5 C-4.785625 33.995 -5.38375 34.49 -6 35 C-5.38722388 32.03824877 -4.74627478 30.61941217 -3 28 C-1.01128909 21.78825909 -0.61609458 15.41189396 -0.375 8.9375 C-0.31699219 7.6390918 -0.31699219 7.6390918 -0.2578125 6.31445312 C-0.16479519 4.20993641 -0.08137331 2.1049991 0 0 Z " fill="#085239" transform="translate(198,219)"/>
<path d="M0 0 C0.33 0 0.66 0 1 0 C1.33 5.61 1.66 11.22 2 17 C-2.51674641 14.74162679 -2.51674641 14.74162679 -4.25 11 C-4.58515625 10.29875 -4.9203125 9.5975 -5.265625 8.875 C-6 7 -6 7 -6 5 C-5.34 5 -4.68 5 -4 5 C-3.67 6.98 -3.34 8.96 -3 11 C-2.34 11 -1.68 11 -1 11 C-1.020625 9.9275 -1.04125 8.855 -1.0625 7.75 C-1.0142016 4.85209576 -0.86844115 2.71387859 0 0 Z " fill="#124C3A" transform="translate(89,177)"/>
<path d="M0 0 C-1.4213725 4.26411751 -4.55094242 5.46547486 -8.25 7.625 C-8.91902344 8.03234375 -9.58804688 8.4396875 -10.27734375 8.859375 C-13.82446795 10.96395557 -16.82561215 12.53078586 -21 13 C-18.72734429 9.59101644 -17.72248596 9.32945927 -14 8 C-12.65949948 7.34786461 -11.32338632 6.68620031 -10 6 C-10 5.34 -10 4.68 -10 4 C-8.02 3.67 -6.04 3.34 -4 3 C-4 2.34 -4 1.68 -4 1 C-2 0 -2 0 0 0 Z " fill="#22483B" transform="translate(186,321)"/>
<path d="M0 0 C1.485 0.99 1.485 0.99 3 2 C3 2.66 3 3.32 3 4 C3.99 4.33 4.98 4.66 6 5 C7.5703125 6.7421875 7.5703125 6.7421875 9.125 8.875 C9.64320312 9.57367188 10.16140625 10.27234375 10.6953125 10.9921875 C12 13 12 13 13 16 C13.66 16 14.32 16 15 16 C15.66 17.65 16.32 19.3 17 21 C9.87337913 15.70071782 2.89898283 8.51190702 0 0 Z " fill="#19996E" transform="translate(72,263)"/>
<path d="M0 0 C2.25 0.25 2.25 0.25 4 1 C3.01 1 2.02 1 1 1 C0.938125 1.53625 0.87625 2.0725 0.8125 2.625 C-0.35906776 6.04958267 -2.66516249 8.2665317 -5 11 C-5.68096422 12.32608822 -6.35330586 13.65686601 -7 15 C-7.99 15.495 -7.99 15.495 -9 16 C-8.58199008 10.67037351 -7.67832319 7.88851309 -4 4 C-3.34 3.21625 -2.68 2.4325 -2 1.625 C-1.34 1.08875 -0.68 0.5525 0 0 Z " fill="#0C6144" transform="translate(150,112)"/>
<path d="M0 0 C0.99 0 1.98 0 3 0 C1.66611428 4.00165715 -0.3809871 5.06860874 -3.75 7.5625 C-5.32007813 8.74005859 -5.32007813 8.74005859 -6.921875 9.94140625 C-9.60309831 11.7345594 -11.96496405 12.96021916 -15 14 C-13.74874616 10.24623848 -12.4347596 9.75926711 -9 8 C-8.34 8 -7.68 8 -7 8 C-7 7.34 -7 6.68 -7 6 C-5.01310269 4.64721885 -3.01254782 3.31431695 -1 2 C-0.67 1.34 -0.34 0.68 0 0 Z " fill="#2D564A" transform="translate(203,306)"/>
<path d="M0 0 C4.62 0.66 9.24 1.32 14 2 C14 2.33 14 2.66 14 3 C12.35 3.33 10.7 3.66 9 4 C10.98 4 12.96 4 15 4 C15 4.66 15 5.32 15 6 C15.66 6.33 16.32 6.66 17 7 C10.54877474 7.68630056 6.26603651 5.72916748 1 2 C0.67 1.34 0.34 0.68 0 0 Z " fill="#054D33" transform="translate(91,211)"/>
<path d="M0 0 C4.02963259 3.49234824 5.70080157 6.71505062 6.1875 12.05859375 C6.30055769 15.90962116 6.17552245 17.73671633 4 21 C3.96261719 20.08476562 3.92523438 19.16953125 3.88671875 18.2265625 C3.82097656 17.03804687 3.75523437 15.84953125 3.6875 14.625 C3.62949219 13.44164062 3.57148438 12.25828125 3.51171875 11.0390625 C3.34285156 10.03617188 3.17398438 9.03328125 3 8 C2.01 7.34 1.02 6.68 0 6 C-0.1875 2.875 -0.1875 2.875 0 0 Z " fill="#4F9E86" transform="translate(224,163)"/>
<path d="M0 0 C4.05850249 1.45479409 7.41752233 3.42265839 11 5.8125 C12.010625 6.47894531 13.02125 7.14539062 14.0625 7.83203125 C17.00744252 10.00549282 19.48330083 12.34913856 22 15 C17.99243877 13.66414626 15.00249087 11.65836661 11.6484375 9.17578125 C9.85131916 7.8939504 8.02016614 6.8888731 6 6 C6 5.34 6 4.68 6 4 C5.195625 3.71125 4.39125 3.4225 3.5625 3.125 C1 2 1 2 0 0 Z " fill="#31B288" transform="translate(242,46)"/>
<path d="M0 0 C3.35184423 0.24277376 4.20803321 1.21969567 6.578125 3.72265625 C7.47840364 4.82814546 8.3687786 5.94176057 9.25 7.0625 C9.93835938 7.91424805 9.93835938 7.91424805 10.640625 8.78320312 C11.76900148 10.1819198 12.8856663 11.59007014 14 13 C13.67 13.66 13.34 14.32 13 15 C8.52366842 12.37258799 6.75892614 10.80773146 5 6 C3.37253306 4.29503463 1.71108689 2.62102968 0 1 C0 0.67 0 0.34 0 0 Z " fill="#47BA94" transform="translate(288,85)"/>
<path d="M0 0 C0.66 0.33 1.32 0.66 2 1 C1.3503125 2.051875 1.3503125 2.051875 0.6875 3.125 C-1.05201562 5.99734499 -1.05201562 5.99734499 -2.5 9.125 C-3.81978997 11.65459743 -4.73666827 13.3025012 -7 15 C-7.99 15 -8.98 15 -10 15 C-8.52501821 11.75355767 -6.66337381 9.15385708 -4.4375 6.375 C-1.9803419 3.33933997 -1.9803419 3.33933997 0 0 Z " fill="#DBEEEB" transform="translate(259,248)"/>
<path d="M0 0 C0.33 0 0.66 0 1 0 C1.33328851 8.56674915 1.11584616 15.95073076 -2 24 C-3.57814106 21.5558754 -4.07481852 20.43586938 -3.57421875 17.51953125 C-3.28160156 16.62621094 -2.98898437 15.73289063 -2.6875 14.8125 C-1.17135849 9.82130848 -0.42563736 5.19277578 0 0 Z " fill="#31A27C" transform="translate(297,147)"/>
<path d="M0 0 C0.99 0.33 1.98 0.66 3 1 C2.67 1.33 2.34 1.66 2 2 C1.63239269 4.32817964 1.29758419 6.6618385 1 9 C-0.65 9 -2.3 9 -4 9 C-4 10.98 -4 12.96 -4 15 C-4.33 15 -4.66 15 -5 15 C-5 12.03 -5 9.06 -5 6 C-4.34 5.67 -3.68 5.34 -3 5 C-2.67 4.34 -2.34 3.68 -2 3 C-1.67 3.33 -1.34 3.66 -1 4 C-0.67 2.68 -0.34 1.36 0 0 Z " fill="#209D75" transform="translate(146,202)"/>
<path d="M0 0 C3.39417765 3.12621626 5.6062718 5.56541027 7 10 C6.01 10 5.02 10 4 10 C3.67 10.99 3.34 11.98 3 13 C2.49487756 11.39743892 1.99608373 9.79288208 1.5 8.1875 C1.2215625 7.29417969 0.943125 6.40085937 0.65625 5.48046875 C0 3 0 3 0 0 Z " fill="#114633" transform="translate(188,109)"/>
<path d="M0 0 C1.32 0.66 2.64 1.32 4 2 C3.01 2.495 3.01 2.495 2 3 C2.061875 4.5159375 2.061875 4.5159375 2.125 6.0625 C1.99426157 10.18076052 1.26749214 13.11830533 0 17 C-0.33 17 -0.66 17 -1 17 C-1.18451025 5.47835991 -1.18451025 5.47835991 0 0 Z " fill="#17AA7B" transform="translate(238,43)"/>
<path d="M0 0 C-0.51340384 3.79918838 -1.2079868 5.43134786 -4 8 C-5.17574711 10.09989652 -5.17574711 10.09989652 -6 12 C-7.46795245 8.18332364 -6.59626457 5.67140851 -5 2 C-2 0 -2 0 0 0 Z " fill="#378F74" transform="translate(268,233)"/>
<path d="M0 0 C0.515625 0.2475 1.03125 0.495 1.5625 0.75 C-5.6375 6.75 -5.6375 6.75 -10.4375 6.75 C-9.15564628 2.90443885 -7.65170223 2.32931973 -4.2265625 0.46875 C-2.4375 -0.25 -2.4375 -0.25 0 0 Z " fill="#315348" transform="translate(77.4375,41.25)"/>
<path d="M0 0 C1.32 0.99 2.64 1.98 4 3 C3.67 3.66 3.34 4.32 3 5 C2.48953125 4.83628906 1.9790625 4.67257813 1.453125 4.50390625 C-1.81291828 3.83301519 -4.9186747 3.9066544 -8.25 3.9375 C-10.14492187 3.95103516 -10.14492187 3.95103516 -12.078125 3.96484375 C-13.04234375 3.97644531 -14.0065625 3.98804687 -15 4 C-12.32299024 1.32299024 -10.665618 1.6463457 -6.9375 1.4375 C-3.15176774 1.54118059 -3.15176774 1.54118059 0 0 Z " fill="#0F503A" transform="translate(169,108)"/>
<path d="M0 0 C0 0.66 0 1.32 0 2 C0.7425 2.0825 1.485 2.165 2.25 2.25 C5.51221354 3.1396946 6.80954878 4.48503749 9 7 C5.86395904 7 4.76431619 6.54591677 2.0625 5.125 C1.39347656 4.77695313 0.72445312 4.42890625 0.03515625 4.0703125 C-0.63644531 3.71710938 -1.30804688 3.36390625 -2 3 C-3.33194542 2.33056469 -4.66487938 1.66308004 -6 1 C-3.92446352 0.4465236 -2.15634036 0 0 0 Z " fill="#409C80" transform="translate(219,141)"/>
<path d="M0 0 C2.24973447 -0.054138 4.49984383 -0.09285491 6.75 -0.125 C8.00296875 -0.14820313 9.2559375 -0.17140625 10.546875 -0.1953125 C13.72820492 -0.01537302 15.36521896 0.31001418 18 2 C11.701318 4.09956067 6.11204906 3.03734969 0 1 C0 0.67 0 0.34 0 0 Z " fill="#51B093" transform="translate(146,248)"/>
<path d="M0 0 C-1.5778125 0.61875 -1.5778125 0.61875 -3.1875 1.25 C-6.58704057 2.69411378 -9.21424307 4.55191058 -12 7 C-12.66 6.34 -13.32 5.68 -14 5 C-12.89932004 4.18278283 -11.79430269 3.37140549 -10.6875 2.5625 C-10.07261719 2.11003906 -9.45773438 1.65757813 -8.82421875 1.19140625 C-5.56347902 -0.93819893 -3.61381675 -1.12152934 0 0 Z " fill="#33584C" transform="translate(153,105)"/>
<path d="M0 0 C0.66 0.99 1.32 1.98 2 3 C1.36220835 4.6779285 0.68892808 6.34241129 0 8 C-0.28867792 10.62805842 -0.50404038 13.17910831 -0.625 15.8125 C-0.66367188 16.50537109 -0.70234375 17.19824219 -0.7421875 17.91210938 C-0.83573568 19.60767015 -0.91892364 21.30379712 -1 23 C-1.33 23 -1.66 23 -2 23 C-2.05447822 20.47886908 -2.09389852 17.9589415 -2.125 15.4375 C-2.14175781 14.73302734 -2.15851563 14.02855469 -2.17578125 13.30273438 C-2.22022044 8.48108178 -1.52768004 4.57702562 0 0 Z " fill="#AED1C7" transform="translate(72,163)"/>
<path d="M0 0 C8.57142857 1 8.57142857 1 12 2 C12 2.66 12 3.32 12 4 C8.96663814 4.22893297 6.02534949 4.36475845 3 4 C0.9375 2 0.9375 2 0 0 Z " fill="#0A3A2A" transform="translate(163,16)"/>
<path d="M0 0 C0.99 0.4021875 0.99 0.4021875 2 0.8125 C5.64939067 2.25705047 9.32245433 3.62871178 13 5 C12.01 5.66 11.02 6.32 10 7 C6.06406814 6.07882446 2.98289255 4.75343928 0 2 C0 1.34 0 0.68 0 0 Z " fill="#289A76" transform="translate(132,256)"/>
<path d="M0 0 C0.66 0 1.32 0 2 0 C2.66 1.98 3.32 3.96 4 6 C3.01 6.99 2.02 7.98 1 9 C0.814375 8.071875 0.814375 8.071875 0.625 7.125 C0.12802644 4.80879168 0.12802644 4.80879168 -2 3 C-1.34 2.01 -0.68 1.02 0 0 Z " fill="#083C2A" transform="translate(71,265)"/>
<path d="M0 0 C3.3776758 1.12589193 4.71363192 2.31943052 7 5 C7 5.99 7 6.98 7 8 C7.66 8 8.32 8 9 8 C9 9.32 9 10.64 9 12 C8.34 12 7.68 12 7 12 C6.38125 10.6696875 6.38125 10.6696875 5.75 9.3125 C4.09890566 6.18721429 2.24600178 3.71069181 0 1 C0 0.67 0 0.34 0 0 Z " fill="#158460" transform="translate(238,157)"/>
<path d="M0 0 C0.66 0 1.32 0 2 0 C2 0.66 2 1.32 2 2 C2.66 2.33 3.32 2.66 4 3 C3.814375 3.598125 3.62875 4.19625 3.4375 4.8125 C2.77906313 7.16408762 2.77906313 7.16408762 4 10 C2.68 9.34 1.36 8.68 0 8 C0 5.36 0 2.72 0 0 Z " fill="#28AD80" transform="translate(142,238)"/>
<path d="M0 0 C5.78461538 4.43076923 5.78461538 4.43076923 6.875 7.3125 C6.936875 8.1478125 6.936875 8.1478125 7 9 C2.36285097 7.53563715 2.36285097 7.53563715 0.6875 5.0625 C0 3 0 3 0 0 Z " fill="#104D37" transform="translate(238,159)"/>
<path d="M0 0 C4.23429756 1.31061591 8.07407404 2.94356259 12 5 C9.5332355 5.88336837 8.36140628 6.1312406 5.859375 5.22265625 C5.16328125 4.83980469 4.4671875 4.45695312 3.75 4.0625 C3.04359375 3.68222656 2.3371875 3.30195312 1.609375 2.91015625 C1.07828125 2.60980469 0.5471875 2.30945312 0 2 C0 1.34 0 0.68 0 0 Z " fill="#257A60" transform="translate(220,34)"/>
<path d="M0 0 C0 3 0 3 -2.1875 5.625 C-5.00654002 8.00552268 -6.39755548 8.69121904 -10 9 C-6.83047153 5.73991357 -3.60062011 2.77762123 0 0 Z " fill="#D6E4E2" transform="translate(208,305)"/>
<path d="M0 0 C0.33 0 0.66 0 1 0 C1.36630156 3.93774177 1.30233203 5.56539771 -1 8.875 C-1.66 9.57625 -2.32 10.2775 -3 11 C-2.53199289 6.94393835 -2.12046792 3.53411321 0 0 Z " fill="#4CA386" transform="translate(280,206)"/>
<path d="M0 0 C0.66 0.33 1.32 0.66 2 1 C0.44499019 4.81684226 -2.03595495 7.19195732 -5 10 C-3.84414715 6.08788267 -2.64465038 3.1254959 0 0 Z " fill="#137755" transform="translate(246,197)"/>
<path d="M0 0 C0.66 0.33 1.32 0.66 2 1 C1.67 1.99 1.34 2.98 1 4 C-4.41538462 4.36923077 -4.41538462 4.36923077 -7.375 2.5 C-7.91125 2.005 -8.4475 1.51 -9 1 C-7.700625 1.020625 -6.40125 1.04125 -5.0625 1.0625 C-3.70834367 1.08399454 -2.35243917 1.07148199 -1 1 C-0.67 0.67 -0.34 0.34 0 0 Z " fill="#3A9375" transform="translate(102,196)"/>
<path d="M0 0 C2.02350324 3.03525486 2.32124018 4.19426202 2.625 7.6875 C2.69976562 8.49574219 2.77453125 9.30398437 2.8515625 10.13671875 C2.90054688 10.75160156 2.94953125 11.36648437 3 12 C1.68 11.34 0.36 10.68 -1 10 C-0.34 9.67 0.32 9.34 1 9 C0.67 8.34 0.34 7.68 0 7 C-0.04022391 4.6670134 -0.04320247 2.33293334 0 0 Z " fill="#268D6B" transform="translate(140,234)"/>
<path d="M0 0 C0.33 0 0.66 0 1 0 C1.66 3.96 2.32 7.92 3 12 C1.68 11.34 0.36 10.68 -1 10 C-0.67 6.7 -0.34 3.4 0 0 Z " fill="#074230" transform="translate(138,231)"/>
<path d="M0 0 C0.66 0 1.32 0 2 0 C2 0.66 2 1.32 2 2 C2.99 2.33 3.98 2.66 5 3 C6.6875 4.5625 6.6875 4.5625 8 6 C7.67 6.99 7.34 7.98 7 9 C5.82737096 7.88121617 4.66204862 6.75476949 3.5 5.625 C2.8503125 4.99851562 2.200625 4.37203125 1.53125 3.7265625 C0 2 0 2 0 0 Z " fill="#1AA073" transform="translate(89,284)"/>
<path d="M0 0 C2.31 0.66 4.62 1.32 7 2 C7 2.66 7 3.32 7 4 C7.99 4 8.98 4 10 4 C10 4.66 10 5.32 10 6 C5.56909529 4.79157144 3.01887244 3.48331435 0 0 Z " fill="#C1E3DB" transform="translate(133,255)"/>
<path d="M0 0 C4.62 0.66 9.24 1.32 14 2 C14 2.33 14 2.66 14 3 C12.04233719 3.08082094 10.08373272 3.13910778 8.125 3.1875 C6.48917969 3.23970703 6.48917969 3.23970703 4.8203125 3.29296875 C3.88960938 3.19628906 2.95890625 3.09960938 2 3 C1.34 2.01 0.68 1.02 0 0 Z " fill="#174736" transform="translate(91,211)"/>
<path d="M0 0 C2.64 0 5.28 0 8 0 C7.34 1.32 6.68 2.64 6 4 C4.125 3.6875 4.125 3.6875 2 3 C1.34 2.01 0.68 1.02 0 0 Z " fill="#1C493C" transform="translate(98,300)"/>
<path d="M0 0 C1.32 0.99 2.64 1.98 4 3 C3.67 4.32 3.34 5.64 3 7 C2.01 6.67 1.02 6.34 0 6 C0 4.02 0 2.04 0 0 Z " fill="#06412C" transform="translate(88,285)"/>
<path d="M0 0 C0.33 0.66 0.66 1.32 1 2 C-1.33679861 5.83902629 -2.86281109 8.20953589 -7 10 C-6.02223933 8.51990357 -5.0427506 7.04094856 -4.0625 5.5625 C-3.51722656 4.73878906 -2.97195312 3.91507812 -2.41015625 3.06640625 C-1 1 -1 1 0 0 Z " fill="#C8E0DB" transform="translate(248,263)"/>
<path d="M0 0 C2 1 2 1 4 4 C4.66 3.67 5.32 3.34 6 3 C5.67 3.99 5.34 4.98 5 6 C3.35 6.33 1.7 6.66 0 7 C0 4.69 0 2.38 0 0 Z " fill="#1F986F" transform="translate(133,200)"/>
<path d="M0 0 C0.66 0.33 1.32 0.66 2 1 C0.71937515 2.7074998 -0.61767557 4.37373596 -2 6 C-2.66 6 -3.32 6 -4 6 C-4 6.66 -4 7.32 -4 8 C-4.66 7.67 -5.32 7.34 -6 7 C-4.02 4.69 -2.04 2.38 0 0 Z " fill="#C1DBD4" transform="translate(83,149)"/>
<path d="M0 0 C2.76262553 0.3810518 3.84143894 0.83597132 5.8125 2.875 C6.204375 3.57625 6.59625 4.2775 7 5 C6.67 5.99 6.34 6.98 6 8 C4.9970458 6.85675161 3.99770973 5.71032809 3 4.5625 C2.443125 3.92441406 1.88625 3.28632812 1.3125 2.62890625 C0 1 0 1 0 0 Z " fill="#41B48F" transform="translate(288,85)"/>
<path d="M0 0 C-0.33 0.99 -0.66 1.98 -1 3 C-3.31 3 -5.62 3 -8 3 C-6 0 -6 0 -4 -0.75 C-2 -1 -2 -1 0 0 Z " fill="#294D41" transform="translate(99,157)"/>
<path d="M0 0 C3.65316671 1.24976756 4.78065836 1.67098753 7 5 C6.625 7.1875 6.625 7.1875 6 9 C4 6 2 3 0 0 Z " fill="#30725D" transform="translate(181,102)"/>
<path d="M0 0 C0.66 0 1.32 0 2 0 C1.67 2.31 1.34 4.62 1 7 C0.01 7.33 -0.98 7.66 -2 8 C-1.34 5.36 -0.68 2.72 0 0 Z " fill="#2C9D79" transform="translate(292,171)"/>
<path d="M0 0 C0.99 0.33 1.98 0.66 3 1 C1.8125 2.5 1.8125 2.5 0 4 C-2.6875 4.1875 -2.6875 4.1875 -5 4 C-3.36587557 2.29159719 -2.13093906 1.06546953 0 0 Z " fill="#DBEBE7" transform="translate(140,95)"/>
</svg>
